<svg xmlns="http://www.w3.org/2000/svg" viewBox="0 0 512 512">
  <rect width="512" height="512" rx="120" fill="#1E50A2"/>
  
  <circle cx="380" cy="130" r="50" fill="#E95464"/>
  
  <path fill="white" d="M140 120 L340 120 L370 280 L160 280 Z" opacity="0.9"/>
  <path fill="white" d="M140 120 L110 300 L380 300 L400 380 L100 380 L130 120 Z"/>
  <circle cx="150" cy="430" r="35" fill="white"/>
  <circle cx="360" cy="430" r="35" fill="white"/>
  
  <path stroke="white" stroke-width="30" stroke-linecap="round" fill="none" d="M130 120 L80 120 L60 80"/>

  <path fill="#1E50A2" d="M256 160 L270 200 L310 210 L280 230 L290 270 L256 250 L222 270 L232 230 L202 210 L242 200 Z" transform="rotate(45, 256, 220) translate(0, -20)"/>
  
  <path stroke="white" stroke-width="15" stroke-linecap="round" d="M60 200 L20 200"/>
  <path stroke="white" stroke-width="15" stroke-linecap="round" d="M70 250 L40 250"/>
</svg>